<svg xmlns="http://www.w3.org/2000/svg" xmlns:xlink="http://www.w3.org/1999/xlink" contentStyleType="text/css" data-diagram-type="DESCRIPTION" height="628px" preserveAspectRatio="none" style="width:464px;height:628px;background:#FFFFFF;" version="1.1" viewBox="0 0 464 628" width="464px" zoomAndPan="magnify"><defs/><g><!--entity actor1--><g class="entity" data-entity="actor1" data-source-line="4" data-uid="ent0002" id="entity_actor1"><ellipse cx="25.0894" cy="290.5" fill="#F1F1F1" rx="8" ry="8" style="stroke:#181818;stroke-width:0.5;"/><path d="M25.0894,298.5 L25.0894,325.5 M12.0894,306.5 L38.0894,306.5 M25.0894,325.5 L12.0894,340.5 M25.0894,325.5 L38.0894,340.5" fill="none" style="stroke:#181818;stroke-width:0.5;"/><text fill="#000000" font-family="sans-serif" font-size="14" lengthAdjust="spacing" textLength="38.1787" x="6" y="354.9951">&#1662;&#1585;&#1587;&#1606;&#1604;</text></g><!--entity UC1--><g class="entity" data-entity="UC1" data-source-line="6" data-uid="ent0003" id="entity_UC1"><ellipse cx="168.9612" cy="319.8922" fill="#F1F1F1" rx="64.9612" ry="15.3922" style="stroke:#181818;stroke-width:0.5;"/><text fill="#000000" font-family="sans-serif" font-size="14" lengthAdjust="spacing" textLength="93.3652" x="122.2786" y="324.5407">&#1605;&#1583;&#1740;&#1585;&#1740;&#1578; &#1587;&#1575;&#1586;&#1605;&#1575;&#1606;</text></g><!--entity UC2--><g class="entity" data-entity="UC2" data-source-line="7" data-uid="ent0004" id="entity_UC2"><ellipse cx="376.0226" cy="24.8045" fill="#F1F1F1" rx="82.0226" ry="18.8045" style="stroke:#181818;stroke-width:0.5;"/><text fill="#000000" font-family="sans-serif" font-size="14" lengthAdjust="spacing" textLength="135.4199" x="308.3126" y="29.4529">&#1605;&#1588;&#1575;&#1607;&#1583;&#1607; &#1583;&#1585;&#1582;&#1578; &#1587;&#1575;&#1586;&#1605;&#1575;&#1606;</text></g><!--entity UC3--><g class="entity" data-entity="UC3" data-source-line="8" data-uid="ent0005" id="entity_UC3"><ellipse cx="376.1044" cy="94.0236" fill="#F1F1F1" rx="53.6044" ry="14.5236" style="stroke:#181818;stroke-width:0.5;"/><text fill="#000000" font-family="sans-serif" font-size="14" lengthAdjust="spacing" textLength="71.5654" x="340.3217" y="98.6721">&#1588;&#1585;&#1705;&#1578; &#1580;&#1583;&#1740;&#1583;</text></g><!--entity UC4--><g class="entity" data-entity="UC4" data-source-line="9" data-uid="ent0006" id="entity_UC4"><ellipse cx="375.7792" cy="158.0236" fill="#F1F1F1" rx="46.7792" ry="14.5236" style="stroke:#181818;stroke-width:0.5;"/><text fill="#000000" font-family="sans-serif" font-size="14" lengthAdjust="spacing" textLength="61.9131" x="344.8226" y="162.6721">&#1588;&#1593;&#1576;&#1607; &#1580;&#1583;&#1740;&#1583;</text></g><!--entity UC5--><g class="entity" data-entity="UC5" data-source-line="10" data-uid="ent0007" id="entity_UC5"><ellipse cx="376.0887" cy="223.0177" fill="#F1F1F1" rx="63.0887" ry="15.0177" style="stroke:#181818;stroke-width:0.5;"/><text fill="#000000" font-family="sans-serif" font-size="14" lengthAdjust="spacing" textLength="88.334" x="331.9217" y="227.6662">&#1608;&#1740;&#1585;&#1575;&#1740;&#1588; &#1588;&#1585;&#1705;&#1578;</text></g><!--entity UC6--><g class="entity" data-entity="UC6" data-source-line="11" data-uid="ent0008" id="entity_UC6"><ellipse cx="376.1363" cy="288.0236" fill="#F1F1F1" rx="58.6363" ry="14.5236" style="stroke:#181818;stroke-width:0.5;"/><text fill="#000000" font-family="sans-serif" font-size="14" lengthAdjust="spacing" textLength="78.6816" x="336.7955" y="292.6721">&#1608;&#1740;&#1585;&#1575;&#1740;&#1588; &#1588;&#1593;&#1576;&#1607;</text></g><!--entity UC7--><g class="entity" data-entity="UC7" data-source-line="12" data-uid="ent0009" id="entity_UC7"><ellipse cx="375.9149" cy="352.0236" fill="#F1F1F1" rx="55.9149" ry="14.5236" style="stroke:#181818;stroke-width:0.5;"/><text fill="#000000" font-family="sans-serif" font-size="14" lengthAdjust="spacing" textLength="74.833" x="338.4984" y="356.6721">&#1581;&#1584;&#1601; &#1588;&#1585;&#1705;&#1578;</text></g><!--entity UC8--><g class="entity" data-entity="UC8" data-source-line="13" data-uid="ent0010" id="entity_UC8"><ellipse cx="376.0897" cy="416.0236" fill="#F1F1F1" rx="49.0897" ry="14.5236" style="stroke:#181818;stroke-width:0.5;"/><text fill="#000000" font-family="sans-serif" font-size="14" lengthAdjust="spacing" textLength="65.1807" x="343.4994" y="420.6721">&#1581;&#1584;&#1601; &#1588;&#1593;&#1576;&#1607;</text></g><!--entity UC9--><g class="entity" data-entity="UC9" data-source-line="14" data-uid="ent0011" id="entity_UC9"><ellipse cx="376.0466" cy="480.0236" fill="#F1F1F1" rx="58.0466" ry="14.5236" style="stroke:#181818;stroke-width:0.5;"/><text fill="#000000" font-family="sans-serif" font-size="14" lengthAdjust="spacing" textLength="77.8477" x="337.1228" y="484.6721">&#1575;&#1606;&#1578;&#1602;&#1575;&#1604; &#1588;&#1585;&#1705;&#1578;</text></g><!--entity UC10--><g class="entity" data-entity="UC10" data-source-line="15" data-uid="ent0012" id="entity_UC10"><ellipse cx="376.2214" cy="544.0236" fill="#F1F1F1" rx="51.2214" ry="14.5236" style="stroke:#181818;stroke-width:0.5;"/><text fill="#000000" font-family="sans-serif" font-size="14" lengthAdjust="spacing" textLength="68.1953" x="342.1237" y="548.6721">&#1575;&#1606;&#1578;&#1602;&#1575;&#1604; &#1588;&#1593;&#1576;&#1607;</text></g><!--entity UC11--><g class="entity" data-entity="UC11" data-source-line="16" data-uid="ent0013" id="entity_UC11"><ellipse cx="375.8071" cy="608.0236" fill="#F1F1F1" rx="24.3071" ry="14.5236" style="stroke:#181818;stroke-width:0.5;"/><text fill="#000000" font-family="sans-serif" font-size="14" lengthAdjust="spacing" textLength="30.1328" x="360.7407" y="612.6721">&#1578;&#1587;&#1578;</text></g><!--link actor1 to UC1--><g class="link" data-entity-1="actor1" data-entity-2="UC1" data-source-line="18" data-uid="lnk14" id="link_actor1_UC1"><path d="M44.27,320 C59.48,320 76.08,320 97.82,320" fill="none" id="actor1-to-UC1" style="stroke:#181818;stroke-width:1;"/><polygon fill="#181818" points="103.82,320,94.82,316,98.82,320,94.82,324,103.82,320" style="stroke:#181818;stroke-width:1;"/></g><!--link UC1 to UC2--><g class="link" data-entity-1="UC1" data-entity-2="UC2" data-source-line="19" data-uid="lnk15" id="link_UC1_UC2"><path d="M173.51,304.46 C184.12,260.66 219.84,134.72 294,62 C303.27,52.91 309.7313,48.3123 321.5513,42.8623" fill="none" id="UC1-to-UC2" style="stroke:#181818;stroke-width:1;stroke-dasharray:7,7;"/><polygon fill="#181818" points="327,40.35,317.1521,40.486,322.4594,42.4436,320.5018,47.7509,327,40.35" style="stroke:#181818;stroke-width:1;"/></g><!--link UC1 to UC3--><g class="link" data-entity-1="UC1" data-entity-2="UC3" data-source-line="20" data-uid="lnk16" id="link_UC1_UC3"><path d="M176.01,304.33 C190.71,268 231.84,177.22 294,126 C306.14,116 316.1125,110.8097 330.4125,105.8397" fill="none" id="UC1-to-UC3" style="stroke:#181818;stroke-width:1;stroke-dasharray:7,7;"/><polygon fill="#181818" points="336.08,103.87,326.2656,103.0463,331.3571,105.5115,328.892,110.6029,336.08,103.87" style="stroke:#181818;stroke-width:1;"/></g><!--link UC1 to UC4--><g class="link" data-entity-1="UC1" data-entity-2="UC4" data-source-line="21" data-uid="lnk17" id="link_UC1_UC4"><path d="M180.99,304.71 C200.82,278.09 245.1,222.93 294,190 C308.3,180.37 320.2492,174.9301 335.4092,169.6901" fill="none" id="UC1-to-UC4" style="stroke:#181818;stroke-width:1;stroke-dasharray:7,7;"/><polygon fill="#181818" points="341.08,167.73,331.2671,166.8896,336.3543,169.3634,333.8805,174.4507,341.08,167.73" style="stroke:#181818;stroke-width:1;"/></g><!--link UC1 to UC5--><g class="link" data-entity-1="UC1" data-entity-2="UC5" data-source-line="22" data-uid="lnk18" id="link_UC1_UC5"><path d="M195.79,305.83 C220.64,292.38 259.45,271.91 294,256 C309.58,248.82 321.6134,243.7641 336.4234,237.8841" fill="none" id="UC1-to-UC5" style="stroke:#181818;stroke-width:1;stroke-dasharray:7,7;"/><polygon fill="#181818" points="342,235.67,332.1591,235.2734,337.3529,237.515,335.1112,242.7088,342,235.67" style="stroke:#181818;stroke-width:1;"/></g><!--link UC1 to UC6--><g class="link" data-entity-1="UC1" data-entity-2="UC6" data-source-line="23" data-uid="lnk19" id="link_UC1_UC6"><path d="M223.86,311.59 C255.54,306.65 289.3517,301.3645 320.1317,296.5645" fill="none" id="UC1-to-UC6" style="stroke:#181818;stroke-width:1;stroke-dasharray:7,7;"/><polygon fill="#181818" points="326.06,295.64,316.5511,293.0745,321.1197,296.4104,317.7838,300.979,326.06,295.64" style="stroke:#181818;stroke-width:1;"/></g><!--link UC1 to UC7--><g class="link" data-entity-1="UC1" data-entity-2="UC7" data-source-line="24" data-uid="lnk20" id="link_UC1_UC7"><path d="M223.86,328.41 C256.13,333.44 290.8418,338.8647 321.8518,343.7047" fill="none" id="UC1-to-UC7" style="stroke:#181818;stroke-width:1;stroke-dasharray:7,7;"/><polygon fill="#181818" points="327.78,344.63,319.5045,339.2899,322.8398,343.8589,318.2708,347.1942,327.78,344.63" style="stroke:#181818;stroke-width:1;"/></g><!--link UC1 to UC8--><g class="link" data-entity-1="UC1" data-entity-2="UC8" data-source-line="25" data-uid="lnk21" id="link_UC1_UC8"><path d="M195.75,334.25 C220.58,347.76 259.37,368.27 294,384 C310.38,391.44 323.4346,396.7399 338.7046,402.5699" fill="none" id="UC1-to-UC8" style="stroke:#181818;stroke-width:1;stroke-dasharray:7,7;"/><polygon fill="#181818" points="344.31,404.71,337.3287,397.763,339.6389,402.9266,334.4752,405.2368,344.31,404.71" style="stroke:#181818;stroke-width:1;"/></g><!--link UC1 to UC9--><g class="link" data-entity-1="UC1" data-entity-2="UC9" data-source-line="26" data-uid="lnk22" id="link_UC1_UC9"><path d="M181.36,335.46 C201.43,361.81 245.63,415.7 294,448 C307.2,456.82 317.5571,461.741 331.8371,466.901" fill="none" id="UC1-to-UC9" style="stroke:#181818;stroke-width:1;stroke-dasharray:7,7;"/><polygon fill="#181818" points="337.48,468.94,330.375,462.1195,332.7776,467.2408,327.6563,469.6434,337.48,468.94" style="stroke:#181818;stroke-width:1;"/></g><!--link UC1 to UC10--><g class="link" data-entity-1="UC1" data-entity-2="UC10" data-source-line="27" data-uid="lnk23" id="link_UC1_UC10"><path d="M176.06,335.51 C190.85,371.46 232.17,461.3 294,512 C306.51,522.26 317.0312,527.5931 331.6612,532.5831" fill="none" id="UC1-to-UC10" style="stroke:#181818;stroke-width:1;stroke-dasharray:7,7;"/><polygon fill="#181818" points="337.34,534.52,330.1131,527.8288,332.6077,532.9059,327.5306,535.4005,337.34,534.52" style="stroke:#181818;stroke-width:1;"/></g><!--link UC1 to UC11--><g class="link" data-entity-1="UC1" data-entity-2="UC11" data-source-line="28" data-uid="lnk24" id="link_UC1_UC11"><path d="M173.35,335.62 C183.57,379.59 218.34,505.8 294,576 C310.29,591.12 328.7521,597.9934 346.4821,602.3334" fill="none" id="UC1-to-UC11" style="stroke:#181818;stroke-width:1;stroke-dasharray:7,7;"/><polygon fill="#181818" points="352.31,603.76,344.5191,597.7348,347.4534,602.5712,342.617,605.5054,352.31,603.76" style="stroke:#181818;stroke-width:1;"/></g><!--SRC=[TP5DJiCm48NtFiKe-rQu_zrqmn4G1x22WOYsGR4hn19KMXRS8n018RGRDfnZ39TXOb9rKhKBsy_szzxuPwpFBTWOakZYqi9PbEZGHl5KcAjeUgqIDG4LsZWviRTZ3O6wqIQUw408lmg1-yO2LsxXvW4eyyzA8MP6XygGmJrW_lk41RKCS8KfVj9IwXOUFpsMDNHDEqlCtH8mfzpt_PxMraEEukUbn5vzdRn2sZNa2v_Bo3hIOPKVooDYIlqQDf4LrZsC-TWAwx62R_ZXxdPp-li0dZ1W0DqLCtTFutmtPtWOusdoY74PFUB6BsNrTn8QZP7_0MhGR8xyosvrc-aEqrscUqptcHumFMIQJiKcyWy0]--></g></svg>