<svg xmlns="http://www.w3.org/2000/svg" xmlns:xlink="http://www.w3.org/1999/xlink" contentStyleType="text/css" data-diagram-type="STATE" height="651px" preserveAspectRatio="none" style="width:315px;height:651px;background:#FFFFFF;" version="1.1" viewBox="0 0 315 651" width="315px" zoomAndPan="magnify"><defs/><g><ellipse cx="132" cy="16" fill="#222222" rx="10" ry="10" style="stroke:#222222;stroke-width:1;"/><g id="Draft"><rect fill="#ADD8E6" height="50" rx="12.5" ry="12.5" style="stroke:#000000;stroke-width:0.5;" width="55.5332" x="104" y="87"/><line style="stroke:#000000;stroke-width:0.5;" x1="104" x2="159.5332" y1="113.2969" y2="113.2969"/><text fill="#000000" font-family="sans-serif" font-size="14" lengthAdjust="spacing" textLength="35.5332" x="114" y="104.9951">Draft</text></g><g id="Submitted"><rect fill="#ADD8E6" height="50" rx="12.5" ry="12.5" style="stroke:#000000;stroke-width:0.5;" width="92.6523" x="85.5" y="214"/><line style="stroke:#000000;stroke-width:0.5;" x1="85.5" x2="178.1523" y1="240.2969" y2="240.2969"/><text fill="#000000" font-family="sans-serif" font-size="14" lengthAdjust="spacing" textLength="72.6523" x="95.5" y="231.9951">Submitted</text></g><g id="Under_Review"><rect fill="#90EE90" height="50" rx="12.5" ry="12.5" style="stroke:#000000;stroke-width:0.5;" width="119.9551" x="7" y="341"/><line style="stroke:#000000;stroke-width:0.5;" x1="7" x2="126.9551" y1="367.2969" y2="367.2969"/><text fill="#000000" font-family="sans-serif" font-size="14" lengthAdjust="spacing" textLength="99.9551" x="17" y="358.9951">Under_Review</text></g><g id="Approved"><rect fill="#FFFFE0" height="50" rx="12.5" ry="12.5" style="stroke:#000000;stroke-width:0.5;" width="87.457" x="23.5" y="468"/><line style="stroke:#000000;stroke-width:0.5;" x1="23.5" x2="110.957" y1="494.2969" y2="494.2969"/><text fill="#000000" font-family="sans-serif" font-size="14" lengthAdjust="spacing" textLength="67.457" x="33.5" y="485.9951">Approved</text></g><g id="Rejected"><rect fill="#FFFFE0" height="50" rx="12.5" ry="12.5" style="stroke:#000000;stroke-width:0.5;" width="81.5303" x="151" y="468"/><line style="stroke:#000000;stroke-width:0.5;" x1="151" x2="232.5303" y1="494.2969" y2="494.2969"/><text fill="#000000" font-family="sans-serif" font-size="14" lengthAdjust="spacing" textLength="61.5303" x="161" y="485.9951">Rejected</text></g><g id="Canceled"><rect fill="#FFFFE0" height="50" rx="12.5" ry="12.5" style="stroke:#000000;stroke-width:0.5;" width="84.9277" x="24.5" y="595"/><line style="stroke:#000000;stroke-width:0.5;" x1="24.5" x2="109.4277" y1="621.2969" y2="621.2969"/><text fill="#000000" font-family="sans-serif" font-size="14" lengthAdjust="spacing" textLength="64.9277" x="34.5" y="612.9951">Canceled</text></g><!--link *start* to Draft--><g class="link" data-entity-1=".start." data-entity-2="Draft" data-source-line="43" data-uid="lnk4" id="link_.start._Draft"><path d="M132,26.01 C132,39.89 132,60.97 132,80.84" fill="none" id="*start*-to-Draft" style="stroke:#000000;stroke-width:1;"/><polygon fill="#000000" points="132,86.84,136,77.84,132,81.84,128,77.84,132,86.84" style="stroke:#000000;stroke-width:1;"/></g><!--link Draft to Submitted--><g class="link" data-entity-1="Draft" data-entity-2="Submitted" data-source-line="45" data-uid="lnk6" id="link_Draft_Submitted"><path d="M132,137.1 C132,159.24 132,185.86 132,207.97" fill="none" id="Draft-to-Submitted" style="stroke:#000000;stroke-width:1;"/><polygon fill="#000000" points="132,213.97,136,204.97,132,208.97,128,204.97,132,213.97" style="stroke:#000000;stroke-width:1;"/><text fill="#000000" font-family="sans-serif" font-size="13" lengthAdjust="spacing" textLength="97.0366" x="133" y="180.0669">&#1579;&#1576;&#1578; &#1608; &#1575;&#1585;&#1587;&#1575;&#1604; &#1581;&#1705;&#1605;</text></g><!--link Submitted to Under_Review--><g class="link" data-entity-1="Submitted" data-entity-2="Under_Review" data-source-line="46" data-uid="lnk8" id="link_Submitted_Under_Review"><path d="M113.05,264.17 C106.49,273.21 99.43,283.77 94,294 C86.08,308.91 81.2626,320.9798 76.4926,334.9998" fill="none" id="Submitted-to-Under_Review" style="stroke:#000000;stroke-width:1;"/><polygon fill="#000000" points="74.56,340.68,81.2457,333.448,76.1705,335.9465,73.672,330.8713,74.56,340.68" style="stroke:#000000;stroke-width:1;"/><text fill="#000000" font-family="sans-serif" font-size="13" lengthAdjust="spacing" textLength="75.0293" x="95" y="307.0669">&#1588;&#1585;&#1608;&#1593; &#1576;&#1585;&#1585;&#1587;&#1740;</text></g><!--link Under_Review to Approved--><g class="link" data-entity-1="Under_Review" data-entity-2="Approved" data-source-line="47" data-uid="lnk10" id="link_Under_Review_Approved"><path d="M67,391.1 C67,413.24 67,439.86 67,461.97" fill="none" id="Under_Review-to-Approved" style="stroke:#000000;stroke-width:1;"/><polygon fill="#000000" points="67,467.97,71,458.97,67,462.97,63,458.97,67,467.97" style="stroke:#000000;stroke-width:1;"/><text fill="#000000" font-family="sans-serif" font-size="13" lengthAdjust="spacing" textLength="21.9438" x="68" y="434.0669">&#1578;&#1571;&#1740;&#1740;&#1583;</text></g><!--link Under_Review to Rejected--><g class="link" data-entity-1="Under_Review" data-entity-2="Rejected" data-source-line="48" data-uid="lnk12" id="link_Under_Review_Rejected"><path d="M91.1,391.1 C113.24,413.24 141.6174,441.6174 163.7274,463.7274" fill="none" id="Under_Review-to-Rejected" style="stroke:#000000;stroke-width:1;"/><polygon fill="#000000" points="167.97,467.97,164.4345,458.7776,164.4345,464.4345,158.7776,464.4345,167.97,467.97" style="stroke:#000000;stroke-width:1;"/><text fill="#000000" font-family="sans-serif" font-size="13" lengthAdjust="spacing" textLength="12.0669" x="138" y="434.0669">&#1585;&#1583;</text></g><!--link Approved to Canceled--><g class="link" data-entity-1="Approved" data-entity-2="Canceled" data-source-line="49" data-uid="lnk14" id="link_Approved_Canceled"><path d="M67,518.1 C67,540.24 67,566.86 67,588.97" fill="none" id="Approved-to-Canceled" style="stroke:#000000;stroke-width:1;"/><polygon fill="#000000" points="67,594.97,71,585.97,67,589.97,63,585.97,67,594.97" style="stroke:#000000;stroke-width:1;"/><text fill="#000000" font-family="sans-serif" font-size="13" lengthAdjust="spacing" textLength="31.3003" x="68" y="561.0669">&#1575;&#1576;&#1591;&#1575;&#1604;</text></g><!--link Rejected to Submitted--><g class="link" data-entity-1="Rejected" data-entity-2="Submitted" data-source-line="50" data-uid="lnk15" id="link_Rejected_Submitted"><path d="M194.3,467.82 C197,429.46 198.49,352.98 175,294 C170.7,283.2 167.3341,277.4285 160.0341,268.7185" fill="none" id="Rejected-to-Submitted" style="stroke:#000000;stroke-width:1;"/><polygon fill="#000000" points="156.18,264.12,158.8955,273.5871,159.3917,267.9521,165.0268,268.4484,156.18,264.12" style="stroke:#000000;stroke-width:1;"/><text fill="#000000" font-family="sans-serif" font-size="13" lengthAdjust="spacing" textLength="111.6299" x="196" y="370.5669">&#1575;&#1589;&#1604;&#1575;&#1581; &#1608; &#1575;&#1585;&#1587;&#1575;&#1604; &#1605;&#1580;&#1583;&#1583;</text></g><!--SRC=[VP3FJi9048Vl-nJZrOGNC8Ia8C43UgXwCCQOjHsmikmssmLYZ3T8EF0M7gee8GqQuvjCvMNSDY6X25psCFlzllbpu6Cha0XklNRXd3MQTV04Zo8MTG8PSisx41bk49uOG9LxdRPMFUdNb52wNAvtGw4U4IiLQ0RjUrCLFTp6dNB9swXNM4CZoctSYRj2hb08DSWOfNtK-JzKXGtOcgEr6goNdXcxFho1Kga2nvgt3AoFnjZ_MewUz-wwWJ7e5x-EWDxfbQQGZe5YIcX1SJe4cls-fIEs8vJvBgMTzDR5Ve03M5_Q6ZyfISVq0rQSPChbXEt4CvSJXbhryoxvKQnYIY_BoN92y_r95n_GCuLaOZERmWojSUcXAA2n7V0xsvTjUlPVBAQlT6ZVsSRLqX5zqDps_mC0]--></g></svg>