<svg xmlns="http://www.w3.org/2000/svg" xmlns:xlink="http://www.w3.org/1999/xlink" contentStyleType="text/css" data-diagram-type="DESCRIPTION" height="564px" preserveAspectRatio="none" style="width:464px;height:564px;background:#FFFFFF;" version="1.1" viewBox="0 0 464 564" width="464px" zoomAndPan="magnify"><defs/><g><!--entity actor1--><g class="entity" data-entity="actor1" data-source-line="4" data-uid="ent0002" id="entity_actor1"><ellipse cx="25.0894" cy="258.5" fill="#F1F1F1" rx="8" ry="8" style="stroke:#181818;stroke-width:0.5;"/><path d="M25.0894,266.5 L25.0894,293.5 M12.0894,274.5 L38.0894,274.5 M25.0894,293.5 L12.0894,308.5 M25.0894,293.5 L38.0894,308.5" fill="none" style="stroke:#181818;stroke-width:0.5;"/><text fill="#000000" font-family="sans-serif" font-size="14" lengthAdjust="spacing" textLength="38.1787" x="6" y="322.9951">&#1662;&#1585;&#1587;&#1606;&#1604;</text></g><!--entity UC1--><g class="entity" data-entity="UC1" data-source-line="6" data-uid="ent0003" id="entity_UC1"><ellipse cx="168.9612" cy="287.8922" fill="#F1F1F1" rx="64.9612" ry="15.3922" style="stroke:#181818;stroke-width:0.5;"/><text fill="#000000" font-family="sans-serif" font-size="14" lengthAdjust="spacing" textLength="93.3652" x="122.2786" y="292.5407">&#1605;&#1583;&#1740;&#1585;&#1740;&#1578; &#1587;&#1575;&#1586;&#1605;&#1575;&#1606;</text></g><!--entity UC2--><g class="entity" data-entity="UC2" data-source-line="7" data-uid="ent0004" id="entity_UC2"><ellipse cx="376.0226" cy="24.8045" fill="#F1F1F1" rx="82.0226" ry="18.8045" style="stroke:#181818;stroke-width:0.5;"/><text fill="#000000" font-family="sans-serif" font-size="14" lengthAdjust="spacing" textLength="135.4199" x="308.3126" y="29.4529">&#1605;&#1588;&#1575;&#1607;&#1583;&#1607; &#1583;&#1585;&#1582;&#1578; &#1587;&#1575;&#1586;&#1605;&#1575;&#1606;</text></g><!--entity UC3--><g class="entity" data-entity="UC3" data-source-line="8" data-uid="ent0005" id="entity_UC3"><ellipse cx="376.1044" cy="94.0236" fill="#F1F1F1" rx="53.6044" ry="14.5236" style="stroke:#181818;stroke-width:0.5;"/><text fill="#000000" font-family="sans-serif" font-size="14" lengthAdjust="spacing" textLength="71.5654" x="340.3217" y="98.6721">&#1588;&#1585;&#1705;&#1578; &#1580;&#1583;&#1740;&#1583;</text></g><!--entity UC4--><g class="entity" data-entity="UC4" data-source-line="9" data-uid="ent0006" id="entity_UC4"><ellipse cx="375.7792" cy="158.0236" fill="#F1F1F1" rx="46.7792" ry="14.5236" style="stroke:#181818;stroke-width:0.5;"/><text fill="#000000" font-family="sans-serif" font-size="14" lengthAdjust="spacing" textLength="61.9131" x="344.8226" y="162.6721">&#1588;&#1593;&#1576;&#1607; &#1580;&#1583;&#1740;&#1583;</text></g><!--entity UC5--><g class="entity" data-entity="UC5" data-source-line="10" data-uid="ent0007" id="entity_UC5"><ellipse cx="376.0887" cy="223.0177" fill="#F1F1F1" rx="63.0887" ry="15.0177" style="stroke:#181818;stroke-width:0.5;"/><text fill="#000000" font-family="sans-serif" font-size="14" lengthAdjust="spacing" textLength="88.334" x="331.9217" y="227.6662">&#1608;&#1740;&#1585;&#1575;&#1740;&#1588; &#1588;&#1585;&#1705;&#1578;</text></g><!--entity UC6--><g class="entity" data-entity="UC6" data-source-line="11" data-uid="ent0008" id="entity_UC6"><ellipse cx="376.1363" cy="288.0236" fill="#F1F1F1" rx="58.6363" ry="14.5236" style="stroke:#181818;stroke-width:0.5;"/><text fill="#000000" font-family="sans-serif" font-size="14" lengthAdjust="spacing" textLength="78.6816" x="336.7955" y="292.6721">&#1608;&#1740;&#1585;&#1575;&#1740;&#1588; &#1588;&#1593;&#1576;&#1607;</text></g><!--entity UC7--><g class="entity" data-entity="UC7" data-source-line="12" data-uid="ent0009" id="entity_UC7"><ellipse cx="375.9149" cy="352.0236" fill="#F1F1F1" rx="55.9149" ry="14.5236" style="stroke:#181818;stroke-width:0.5;"/><text fill="#000000" font-family="sans-serif" font-size="14" lengthAdjust="spacing" textLength="74.833" x="338.4984" y="356.6721">&#1581;&#1584;&#1601; &#1588;&#1585;&#1705;&#1578;</text></g><!--entity UC8--><g class="entity" data-entity="UC8" data-source-line="13" data-uid="ent0010" id="entity_UC8"><ellipse cx="376.0897" cy="416.0236" fill="#F1F1F1" rx="49.0897" ry="14.5236" style="stroke:#181818;stroke-width:0.5;"/><text fill="#000000" font-family="sans-serif" font-size="14" lengthAdjust="spacing" textLength="65.1807" x="343.4994" y="420.6721">&#1581;&#1584;&#1601; &#1588;&#1593;&#1576;&#1607;</text></g><!--entity UC9--><g class="entity" data-entity="UC9" data-source-line="14" data-uid="ent0011" id="entity_UC9"><ellipse cx="376.0466" cy="480.0236" fill="#F1F1F1" rx="58.0466" ry="14.5236" style="stroke:#181818;stroke-width:0.5;"/><text fill="#000000" font-family="sans-serif" font-size="14" lengthAdjust="spacing" textLength="77.8477" x="337.1228" y="484.6721">&#1575;&#1606;&#1578;&#1602;&#1575;&#1604; &#1588;&#1585;&#1705;&#1578;</text></g><!--entity UC10--><g class="entity" data-entity="UC10" data-source-line="15" data-uid="ent0012" id="entity_UC10"><ellipse cx="376.2214" cy="544.0236" fill="#F1F1F1" rx="51.2214" ry="14.5236" style="stroke:#181818;stroke-width:0.5;"/><text fill="#000000" font-family="sans-serif" font-size="14" lengthAdjust="spacing" textLength="68.1953" x="342.1237" y="548.6721">&#1575;&#1606;&#1578;&#1602;&#1575;&#1604; &#1588;&#1593;&#1576;&#1607;</text></g><!--link actor1 to UC1--><g class="link" data-entity-1="actor1" data-entity-2="UC1" data-source-line="17" data-uid="lnk13" id="link_actor1_UC1"><path d="M44.27,288 C59.48,288 76.08,288 97.82,288" fill="none" id="actor1-to-UC1" style="stroke:#181818;stroke-width:1;"/><polygon fill="#181818" points="103.82,288,94.82,284,98.82,288,94.82,292,103.82,288" style="stroke:#181818;stroke-width:1;"/></g><!--link UC1 to UC2--><g class="link" data-entity-1="UC1" data-entity-2="UC2" data-source-line="18" data-uid="lnk14" id="link_UC1_UC2"><path d="M174.71,272.39 C187.52,232.33 226.63,124.6 294,62 C303.63,53.05 310.3336,48.4655 322.2936,42.9955" fill="none" id="UC1-to-UC2" style="stroke:#181818;stroke-width:1;stroke-dasharray:7,7;"/><polygon fill="#181818" points="327.75,40.5,317.9017,40.6057,323.203,42.5796,321.2291,47.8809,327.75,40.5" style="stroke:#181818;stroke-width:1;"/></g><!--link UC1 to UC3--><g class="link" data-entity-1="UC1" data-entity-2="UC3" data-source-line="19" data-uid="lnk15" id="link_UC1_UC3"><path d="M178.11,272.37 C195.35,240.57 238.6,167.84 294,126 C306.79,116.34 317.2055,111.1683 331.6655,106.1183" fill="none" id="UC1-to-UC3" style="stroke:#181818;stroke-width:1;stroke-dasharray:7,7;"/><polygon fill="#181818" points="337.33,104.14,327.5144,103.3311,332.6096,105.7886,330.1521,110.8837,337.33,104.14" style="stroke:#181818;stroke-width:1;"/></g><!--link UC1 to UC4--><g class="link" data-entity-1="UC1" data-entity-2="UC4" data-source-line="20" data-uid="lnk16" id="link_UC1_UC4"><path d="M186.11,272.69 C208.75,251.81 251.91,214.24 294,190 C309.2,181.25 321.604,175.8905 336.814,170.4205" fill="none" id="UC1-to-UC4" style="stroke:#181818;stroke-width:1;stroke-dasharray:7,7;"/><polygon fill="#181818" points="342.46,168.39,332.6374,167.6717,337.755,170.0821,335.3447,175.1997,342.46,168.39" style="stroke:#181818;stroke-width:1;"/></g><!--link UC1 to UC5--><g class="link" data-entity-1="UC1" data-entity-2="UC5" data-source-line="21" data-uid="lnk17" id="link_UC1_UC5"><path d="M209.04,275.62 C245.98,263.91 295.341,248.2648 331.771,236.7048" fill="none" id="UC1-to-UC5" style="stroke:#181818;stroke-width:1;stroke-dasharray:7,7;"/><polygon fill="#181818" points="337.49,234.89,327.7017,233.7995,332.7242,236.4023,330.1214,241.4248,337.49,234.89" style="stroke:#181818;stroke-width:1;"/></g><!--link UC1 to UC6--><g class="link" data-entity-1="UC1" data-entity-2="UC6" data-source-line="22" data-uid="lnk18" id="link_UC1_UC6"><path d="M234.02,288 C260.69,288 285.42,288 311.37,288" fill="none" id="UC1-to-UC6" style="stroke:#181818;stroke-width:1;stroke-dasharray:7,7;"/><polygon fill="#181818" points="317.37,288,308.37,284,312.37,288,308.37,292,317.37,288" style="stroke:#181818;stroke-width:1;"/></g><!--link UC1 to UC7--><g class="link" data-entity-1="UC1" data-entity-2="UC7" data-source-line="23" data-uid="lnk19" id="link_UC1_UC7"><path d="M209.53,300.34 C247.11,312.07 297.4026,327.7721 333.6326,339.0821" fill="none" id="UC1-to-UC7" style="stroke:#181818;stroke-width:1;stroke-dasharray:7,7;"/><polygon fill="#181818" points="339.36,340.87,331.9608,334.3698,334.5872,339.3801,329.5769,342.0064,339.36,340.87" style="stroke:#181818;stroke-width:1;"/></g><!--link UC1 to UC8--><g class="link" data-entity-1="UC1" data-entity-2="UC8" data-source-line="24" data-uid="lnk20" id="link_UC1_UC8"><path d="M186.17,302.97 C208.88,323.39 252.12,360.16 294,384 C309.11,392.6 321.3483,397.8876 336.4583,403.3576" fill="none" id="UC1-to-UC8" style="stroke:#181818;stroke-width:1;stroke-dasharray:7,7;"/><polygon fill="#181818" points="342.1,405.4,334.999,398.5753,337.3986,403.698,332.2759,406.0976,342.1,405.4" style="stroke:#181818;stroke-width:1;"/></g><!--link UC1 to UC9--><g class="link" data-entity-1="UC1" data-entity-2="UC9" data-source-line="25" data-uid="lnk21" id="link_UC1_UC9"><path d="M178.16,303.43 C195.49,334.83 238.91,406.65 294,448 C306.46,457.35 316.3487,462.3343 330.4787,467.3743" fill="none" id="UC1-to-UC9" style="stroke:#181818;stroke-width:1;stroke-dasharray:7,7;"/><polygon fill="#181818" points="336.13,469.39,328.9969,462.5989,331.4206,467.7102,326.3093,470.1339,336.13,469.39" style="stroke:#181818;stroke-width:1;"/></g><!--link UC1 to UC10--><g class="link" data-entity-1="UC1" data-entity-2="UC10" data-source-line="26" data-uid="lnk22" id="link_UC1_UC10"><path d="M174.56,303.67 C187.02,343.88 225.37,451.72 294,512 C305.93,522.48 316.0214,527.8026 330.4714,532.7326" fill="none" id="UC1-to-UC10" style="stroke:#181818;stroke-width:1;stroke-dasharray:7,7;"/><polygon fill="#181818" points="336.15,534.67,328.9237,527.9782,331.4178,533.0555,326.3405,535.5496,336.15,534.67" style="stroke:#181818;stroke-width:1;"/></g><!--SRC=[TP5BJiCm48RtFiKe-rOrVM-wuGY80rZ1G4JReDYewfAg3nRS8r018RGRDfnZ39TXOe8wgTh5sB_6t_nZZuVwqeAD8OckhYrSH8aERHIFXRc9nhSgKIDGeOsJCpiTQWZKH9juf0CXV1O2zuKvRjpIpGDGve-LGjmP7If31Mw1sSyZvXHhm0sc-46fr2qzVdugA-YMJbQOkHLWHhvlXsjETZLKaNy_5zYBxvELIBE2VE9JOLb5MgppGt55J6dTmhzbYRMFOzwsn3giuIk-k_jzd-uXW3lq641lnRMRqJxVz-aVnxYRR9HV9A5M6_X1Kq2zFl03tEacqoscsqntcEuotMEwpxHi_080]--></g></svg>